<svg id="Capa_14" data-name="Capa 14" xmlns="http://www.w3.org/2000/svg" viewBox="0 0 1632 719.78"><defs><style>.cls-1{fill:#a35cf8;}</style></defs><path d="M1420.12,184.48H797.7S1061.42,262.73,1005.53,654c5.59,5.59,23.52,13.21,98.39,121.18-3.37-3.81,85.23,119.15,253.31,124.74,0,0,345.24,7.57,362.86-362.3-4.75-1,19.6-291.62-300-353.1" transform="translate(-156 -180.11)"/><path d="M1732.11,418.51c15,34.52,23.75,74.83,23.75,118.08s-8.78,83.56-23.75,118.08C1765,635,1788,589.54,1788,536.59S1765,438.21,1732.11,418.51Z" transform="translate(-156 -180.11)"/><path d="M211.89,429.69c-15,34.52-23.75,74.82-23.75,118.08s8.78,83.56,23.75,118.08C179,646.15,156,600.71,156,547.77S179,449.39,211.89,429.69Z" transform="translate(-156 -180.11)"/><path class="cls-1" d="M937.62,537.08a359.29,359.29,0,0,1-4,53.49H409.12q17.42,56.32,64.39,90.54t106,34.2q81.81,0,135.48-63l110,146.21Q721.64,896.42,579.47,896.4q-151.59,0-255.53-103.75T220,537.58q0-150,104.64-253.71T579.47,180.11q150.22,0,254.2,103.62T937.62,537.08Zm-202.55-82q-49.64-93.88-155.6-93.9-107.33,0-156.94,93.9Z" transform="translate(-156 -180.11)"/></svg>